<?xml version="1.0" encoding="utf-8"?>
<svg viewBox="0 0 300 300" xmlns="http://www.w3.org/2000/svg">
  <polygon style="stroke: rgb(0, 0, 0);" points="49.254 109.006 75.788 39.581 128.855 52.775 224.212 39.006 250.746 109.006"/>
  <polygon style="stroke: rgb(0, 0, 0);" points="42.288 256.247"/>
  <polygon style="stroke: rgb(0, 0, 0);" points="17.5 167.332 282.5 166.304 170.176 127.332"/>
  <path d="M 131.135 236.348 C 125.698 260.124 96.562 269.099 78.69 252.503 C 70.395 244.801 66.84 233.259 69.363 222.224 C 74.799 198.448 103.935 189.473 121.807 206.069 C 124.422 208.497 126.565 211.306 128.196 214.361 L 171.765 214.361 C 181.096 196.67 205.57 191.454 221.309 206.069 C 229.604 213.772 233.16 225.314 230.637 236.348 C 225.2 260.124 196.064 269.099 178.192 252.503 C 171.179 245.991 167.554 236.735 168.126 227.361 L 131.874 227.361 C 132.056 230.336 131.818 233.361 131.135 236.348 Z M 94.652 211.119 C 80.667 215.427 76.59 233.259 87.313 243.217 C 92.29 247.838 99.354 249.453 105.845 247.454 C 119.83 243.146 123.908 225.314 113.184 215.356 C 108.207 210.735 101.143 209.119 94.652 211.119 Z M 194.154 211.119 C 180.169 215.427 176.092 233.259 186.815 243.217 C 191.792 247.838 198.856 249.453 205.347 247.454 C 219.332 243.146 223.41 225.314 212.686 215.356 C 207.709 210.735 200.645 209.119 194.154 211.119 Z"/>
</svg>