<?xml version="1.0" encoding="utf-8"?>
<svg viewBox="0 0 48 48" xmlns="http://www.w3.org/2000/svg" xmlns:bx="https://boxy-svg.com">
  <defs>
    <bx:guide x="100.569" y="-43.744" angle="90"/>
    <bx:guide x="118.698" y="-36.111" angle="90"/>
    <bx:guide x="118.698" y="-36.111" angle="90"/>
    <bx:guide x="-69.269" y="224.371" angle="0"/>
    <bx:guide x="-69.269" y="224.371" angle="0"/>
    <bx:guide x="-69.269" y="224.371" angle="0"/>
    <bx:guide x="-69.269" y="224.371" angle="0"/>
    <bx:guide x="-69.269" y="224.371" angle="0"/>
    <bx:guide x="350.556" y="310.244" angle="0"/>
    <bx:guide x="150.185" y="317.877" angle="0"/>
  </defs>
  <path d="M 50 50 L 450 50 L 450 450 L 50 450 Z" fill="none"/>
  <path d="M 150 150 L 350 150 L 350 350 L 150 350 Z" fill="none"/>
  <path d="M 175 175 L 325 175 L 325 325 L 175 325 Z" fill="none"/>
  <path d="M 14.372 25.985 L 14.372 28.253 C 17.499 28.253 20.035 30.788 20.035 33.915 L 22.302 33.915 C 22.302 29.533 18.755 25.985 14.372 25.985 Z M 14.372 30.518 L 14.372 33.915 L 17.772 33.915 C 17.772 32.034 16.253 30.518 14.372 30.518 Z M 14.372 21.457 L 14.372 23.721 C 20.002 23.721 24.566 28.289 24.566 33.915 L 26.832 33.915 C 26.832 27.028 21.259 21.457 14.372 21.457 Z M 31.361 9.009 L 20.035 8.997 C 18.79 8.997 17.772 10.016 17.772 11.261 L 17.772 19.61 C 18.554 19.791 19.311 20.028 20.035 20.334 L 20.035 13.526 L 31.361 13.526 L 31.361 28.253 L 27.931 28.253 C 28.521 29.666 28.881 31.186 29.006 32.782 L 31.361 32.782 C 32.608 32.782 33.627 31.761 33.627 30.518 L 33.627 11.261 C 33.627 10.016 32.608 9.009 31.361 9.009 Z"/>
  <path d="M0 0h24v24H0z" fill="none" transform="matrix(1, 0, 0, 1, 18.860752, 15.842406)"/>
  <path d="M 27.447 17.963 C 26.784 17.963 26.15 18.271 25.733 18.759 C 25.318 18.271 24.682 17.963 24.022 17.963 C 22.849 17.963 21.928 18.884 21.928 20.056 C 21.928 21.496 23.222 22.668 25.181 24.45 L 25.733 24.949 L 26.286 24.446 C 28.246 22.668 29.542 21.496 29.542 20.056 C 29.542 18.884 28.62 17.963 27.447 17.963 Z M 25.773 23.882 L 25.733 23.92 L 25.696 23.882 C 23.885 22.242 22.689 21.157 22.689 20.056 C 22.689 19.295 23.26 18.724 24.022 18.724 C 24.608 18.724 25.179 19.101 25.38 19.623 L 26.092 19.623 C 26.29 19.101 26.862 18.724 27.447 18.724 C 28.209 18.724 28.781 19.295 28.781 20.056 C 28.781 21.157 27.584 22.242 25.773 23.882 Z"/>
  <path d="M 14.973 38.428 C 14.746 38.428 14.56 38.355 14.413 38.208 C 14.273 38.055 14.203 37.851 14.203 37.598 L 14.203 37.548 C 14.203 37.381 14.233 37.231 14.293 37.098 C 14.36 36.965 14.45 36.861 14.563 36.788 C 14.676 36.715 14.8 36.678 14.933 36.678 C 15.153 36.678 15.326 36.751 15.453 36.898 C 15.573 37.038 15.633 37.245 15.633 37.518 L 15.633 37.638 L 14.483 37.638 C 14.49 37.805 14.54 37.938 14.633 38.038 C 14.726 38.145 14.846 38.198 14.993 38.198 C 15.093 38.198 15.18 38.175 15.253 38.128 C 15.32 38.088 15.38 38.035 15.433 37.968 L 15.613 38.098 C 15.473 38.318 15.26 38.428 14.973 38.428 Z M 14.933 36.918 C 14.82 36.918 14.723 36.958 14.643 37.038 C 14.563 37.125 14.513 37.245 14.493 37.398 L 15.343 37.398 L 15.343 37.378 C 15.336 37.231 15.296 37.118 15.223 37.038 C 15.156 36.958 15.06 36.918 14.933 36.918 ZM 17.758 36.128 L 17.758 38.398 L 17.458 38.398 L 17.458 37.348 L 16.308 37.348 L 16.308 38.398 L 16.008 38.398 L 16.008 36.128 L 16.308 36.128 L 16.308 37.098 L 17.458 37.098 L 17.458 36.128 L 17.758 36.128 ZM 18.95 38.428 C 18.723 38.428 18.536 38.355 18.39 38.208 C 18.25 38.055 18.18 37.851 18.18 37.598 L 18.18 37.548 C 18.18 37.381 18.21 37.231 18.27 37.098 C 18.336 36.965 18.426 36.861 18.54 36.788 C 18.653 36.715 18.776 36.678 18.91 36.678 C 19.13 36.678 19.303 36.751 19.43 36.898 C 19.55 37.038 19.61 37.245 19.61 37.518 L 19.61 37.638 L 18.46 37.638 C 18.466 37.805 18.516 37.938 18.61 38.038 C 18.703 38.145 18.823 38.198 18.97 38.198 C 19.07 38.198 19.156 38.175 19.23 38.128 C 19.296 38.088 19.356 38.035 19.41 37.968 L 19.59 38.098 C 19.45 38.318 19.236 38.428 18.95 38.428 Z M 18.91 36.918 C 18.796 36.918 18.7 36.958 18.62 37.038 C 18.54 37.125 18.49 37.245 18.47 37.398 L 19.32 37.398 L 19.32 37.378 C 19.313 37.231 19.273 37.118 19.2 37.038 C 19.133 36.958 19.036 36.918 18.91 36.918 ZM 21.295 38.398 L 20.985 38.398 C 20.972 38.365 20.958 38.305 20.945 38.218 C 20.812 38.358 20.652 38.428 20.465 38.428 C 20.298 38.428 20.162 38.381 20.055 38.288 C 19.948 38.195 19.895 38.075 19.895 37.928 C 19.895 37.755 19.962 37.618 20.095 37.518 C 20.228 37.418 20.418 37.368 20.665 37.368 L 20.945 37.368 L 20.945 37.238 C 20.945 37.138 20.915 37.058 20.855 36.998 C 20.795 36.938 20.705 36.908 20.585 36.908 C 20.478 36.908 20.392 36.935 20.325 36.988 C 20.258 37.041 20.225 37.105 20.225 37.178 L 19.925 37.178 C 19.925 37.091 19.955 37.008 20.015 36.928 C 20.075 36.855 20.158 36.795 20.265 36.748 C 20.365 36.701 20.478 36.678 20.605 36.678 C 20.798 36.678 20.948 36.725 21.055 36.818 C 21.168 36.918 21.228 37.055 21.235 37.228 L 21.235 37.998 C 21.235 38.158 21.255 38.281 21.295 38.368 L 21.295 38.398 Z M 20.505 38.178 C 20.598 38.178 20.685 38.155 20.765 38.108 C 20.845 38.061 20.905 38.001 20.945 37.928 L 20.945 37.578 L 20.715 37.578 C 20.362 37.578 20.185 37.681 20.185 37.888 C 20.185 37.981 20.215 38.051 20.275 38.098 C 20.335 38.151 20.412 38.178 20.505 38.178 ZM 21.995 35.998 L 21.995 38.398 L 21.705 38.398 L 21.705 35.998 L 21.995 35.998 ZM 22.562 36.298 L 22.852 36.298 L 22.852 36.708 L 23.172 36.708 L 23.172 36.928 L 22.852 36.928 L 22.852 37.978 C 22.852 38.045 22.865 38.095 22.892 38.128 C 22.925 38.161 22.975 38.178 23.042 38.178 C 23.075 38.178 23.119 38.175 23.172 38.168 L 23.172 38.398 C 23.099 38.418 23.025 38.428 22.952 38.428 C 22.825 38.428 22.729 38.388 22.662 38.308 C 22.595 38.235 22.562 38.125 22.562 37.978 L 22.562 36.928 L 22.252 36.928 L 22.252 36.708 L 22.562 36.708 L 22.562 36.298 ZM 23.797 35.998 L 23.797 36.908 C 23.924 36.755 24.091 36.678 24.297 36.678 C 24.651 36.678 24.831 36.878 24.837 37.278 L 24.837 38.398 L 24.547 38.398 L 24.547 37.278 C 24.547 37.158 24.521 37.068 24.467 37.008 C 24.407 36.948 24.321 36.918 24.207 36.918 C 24.114 36.918 24.031 36.945 23.957 36.998 C 23.891 37.045 23.837 37.111 23.797 37.198 L 23.797 38.398 L 23.507 38.398 L 23.507 35.998 L 23.797 35.998 ZM 25.992 37.558 L 25.992 37.538 C 25.992 37.278 26.052 37.068 26.172 36.908 C 26.299 36.755 26.462 36.678 26.662 36.678 C 26.855 36.678 27.012 36.745 27.132 36.878 L 27.132 35.998 L 27.422 35.998 L 27.422 38.398 L 27.152 38.398 L 27.142 38.218 C 27.022 38.358 26.859 38.428 26.652 38.428 C 26.459 38.428 26.299 38.348 26.172 38.188 C 26.052 38.028 25.992 37.818 25.992 37.558 Z M 26.282 37.568 C 26.282 37.761 26.322 37.911 26.402 38.018 C 26.482 38.131 26.589 38.188 26.722 38.188 C 26.909 38.188 27.045 38.105 27.132 37.938 L 27.132 37.158 C 27.045 36.998 26.912 36.918 26.732 36.918 C 26.592 36.918 26.482 36.975 26.402 37.088 C 26.322 37.195 26.282 37.355 26.282 37.568 ZM 28.567 38.428 C 28.34 38.428 28.153 38.355 28.007 38.208 C 27.867 38.055 27.797 37.851 27.797 37.598 L 27.797 37.548 C 27.797 37.381 27.827 37.231 27.887 37.098 C 27.953 36.965 28.043 36.861 28.157 36.788 C 28.27 36.715 28.393 36.678 28.527 36.678 C 28.747 36.678 28.92 36.751 29.047 36.898 C 29.167 37.038 29.227 37.245 29.227 37.518 L 29.227 37.638 L 28.077 37.638 C 28.083 37.805 28.133 37.938 28.227 38.038 C 28.32 38.145 28.44 38.198 28.587 38.198 C 28.687 38.198 28.773 38.175 28.847 38.128 C 28.913 38.088 28.973 38.035 29.027 37.968 L 29.207 38.098 C 29.067 38.318 28.853 38.428 28.567 38.428 Z M 28.527 36.918 C 28.413 36.918 28.317 36.958 28.237 37.038 C 28.157 37.125 28.107 37.245 28.087 37.398 L 28.937 37.398 L 28.937 37.378 C 28.93 37.231 28.89 37.118 28.817 37.038 C 28.75 36.958 28.653 36.918 28.527 36.918 ZM 29.562 36.708 L 29.832 36.708 L 29.842 36.898 C 29.962 36.751 30.129 36.678 30.342 36.678 C 30.575 36.678 30.735 36.768 30.822 36.948 C 30.882 36.868 30.955 36.801 31.042 36.748 C 31.135 36.701 31.242 36.678 31.362 36.678 C 31.735 36.678 31.925 36.875 31.932 37.268 L 31.932 38.398 L 31.642 38.398 L 31.642 37.278 C 31.642 37.158 31.615 37.068 31.562 37.008 C 31.502 36.948 31.409 36.918 31.282 36.918 C 31.175 36.918 31.085 36.951 31.012 37.018 C 30.939 37.085 30.899 37.171 30.892 37.278 L 30.892 38.398 L 30.602 38.398 L 30.602 37.288 C 30.602 37.041 30.482 36.918 30.242 36.918 C 30.049 36.918 29.919 37.001 29.852 37.168 L 29.852 38.398 L 29.562 38.398 L 29.562 36.708 ZM 32.287 37.558 L 32.287 37.538 C 32.287 37.371 32.32 37.221 32.387 37.088 C 32.453 36.955 32.543 36.855 32.657 36.788 C 32.777 36.715 32.91 36.678 33.057 36.678 C 33.283 36.678 33.47 36.758 33.617 36.918 C 33.757 37.078 33.827 37.288 33.827 37.548 L 33.827 37.568 C 33.827 37.735 33.797 37.885 33.737 38.018 C 33.67 38.145 33.58 38.245 33.467 38.318 C 33.347 38.391 33.21 38.428 33.057 38.428 C 32.83 38.428 32.647 38.348 32.507 38.188 C 32.36 38.028 32.287 37.818 32.287 37.558 Z M 32.577 37.568 C 32.577 37.755 32.62 37.905 32.707 38.018 C 32.793 38.138 32.91 38.198 33.057 38.198 C 33.203 38.198 33.32 38.138 33.407 38.018 C 33.493 37.905 33.537 37.745 33.537 37.538 C 33.537 37.351 33.493 37.201 33.407 37.088 C 33.32 36.975 33.203 36.918 33.057 36.918 C 32.917 36.918 32.8 36.975 32.707 37.088 C 32.62 37.201 32.577 37.361 32.577 37.568 Z" transform="matrix(1, 0, 0, 1, 0, 0)" style="white-space: pre;"/>
</svg>